<?xml version="1.0" encoding="utf-8"?>
<!-- Generator: Adobe Illustrator 24.3.0, SVG Export Plug-In . SVG Version: 6.00 Build 0)  -->
<svg version="1.1" id="Слой_1" xmlns="http://www.w3.org/2000/svg" xmlns:xlink="http://www.w3.org/1999/xlink" x="0px" y="0px"
	 viewBox="0 0 55.03 38.74" style="enable-background:new 0 0 55.03 38.74;" xml:space="preserve">
<style type="text/css">
	.st0{fill:#104C99;}
	.st1{fill:none;stroke:#E63127;stroke-width:1.35;stroke-linecap:round;stroke-linejoin:round;stroke-miterlimit:10;}
</style>
<g>
	<g>
		<path class="st0" d="M18.85,25.45c-0.74,0-1.41-0.14-2-0.41c-0.59-0.27-1.06-0.66-1.4-1.15c-0.34-0.49-0.51-1.06-0.51-1.7v-6.28
			c0-0.37-0.11-0.7-0.33-1s-0.5-0.53-0.86-0.7s-0.75-0.25-1.18-0.25s-0.83,0.08-1.2,0.25c-0.36,0.17-0.65,0.4-0.87,0.7
			s-0.33,0.63-0.33,1v9.32H8.61v-9.13c0-0.64,0.17-1.2,0.5-1.69c0.33-0.49,0.8-0.87,1.39-1.16c0.59-0.28,1.28-0.43,2.06-0.43
			c0.77,0,1.45,0.14,2.04,0.43c0.59,0.28,1.06,0.67,1.4,1.16c0.34,0.49,0.51,1.05,0.51,1.69v6.28c0,0.37,0.11,0.7,0.33,1
			s0.5,0.53,0.85,0.7c0.35,0.17,0.73,0.25,1.15,0.25c0.42,0,0.8-0.08,1.15-0.25c0.35-0.17,0.63-0.4,0.84-0.7s0.31-0.63,0.31-1v-6.28
			c0-0.64,0.17-1.2,0.5-1.69c0.33-0.49,0.8-0.87,1.4-1.16c0.6-0.28,1.29-0.43,2.05-0.43c0.78,0,1.47,0.14,2.05,0.43
			c0.59,0.28,1.05,0.67,1.38,1.16c0.33,0.49,0.5,1.05,0.5,1.69v9.13h-1.56v-9.32c0-0.37-0.11-0.7-0.32-1s-0.49-0.53-0.85-0.7
			c-0.36-0.17-0.76-0.25-1.21-0.25c-0.43,0-0.84,0.08-1.21,0.25c-0.37,0.17-0.66,0.4-0.87,0.7s-0.31,0.63-0.31,1v6.28
			c0,0.64-0.17,1.2-0.5,1.7c-0.33,0.49-0.79,0.88-1.37,1.15C20.27,25.31,19.6,25.45,18.85,25.45z"/>
		<path class="st0" d="M32.39,25.24V13.09h1.56v5.41h8.71v-5.41h1.56v12.15h-1.56v-5.63h-8.71v5.63H32.39z"/>
	</g>
	<path class="st1" d="M13.9,11.78c0-1.08-0.92-1.96-2.04-1.96s-2.04,0.88-2.03,1.96c0-1.08-0.92-1.96-2.04-1.96
		c-1.13,0-2.04,0.88-2.03,1.96c0,0.31,0.08,0.6,0.22,0.86l-0.01,0l0.05,0.08c0.05,0.08,0.1,0.17,0.16,0.24l0.04,0.06l0.31,0.36
		l3.3,3.31l3.29-3.32l0.31-0.36l0.04-0.06c0.06-0.08,0.11-0.16,0.16-0.24l0.05-0.08l-0.01,0C13.82,12.38,13.9,12.09,13.9,11.78z"/>
	<g>
		<path class="st0" d="M18.85,25.45c-0.74,0-1.41-0.14-2-0.41c-0.59-0.27-1.06-0.66-1.4-1.15c-0.34-0.49-0.51-1.06-0.51-1.7v-6.28
			c0-0.37-0.11-0.7-0.33-1s-0.5-0.53-0.86-0.7s-0.75-0.25-1.18-0.25s-0.83,0.08-1.2,0.25c-0.36,0.17-0.65,0.4-0.87,0.7
			s-0.33,0.63-0.33,1v9.32H8.61v-9.13c0-0.64,0.17-1.2,0.5-1.69c0.33-0.49,0.8-0.87,1.39-1.16c0.59-0.28,1.28-0.43,2.06-0.43
			c0.77,0,1.45,0.14,2.04,0.43c0.59,0.28,1.06,0.67,1.4,1.16c0.34,0.49,0.51,1.05,0.51,1.69v6.28c0,0.37,0.11,0.7,0.33,1
			s0.5,0.53,0.85,0.7c0.35,0.17,0.73,0.25,1.15,0.25c0.42,0,0.8-0.08,1.15-0.25c0.35-0.17,0.63-0.4,0.84-0.7s0.31-0.63,0.31-1v-6.28
			c0-0.64,0.17-1.2,0.5-1.69c0.33-0.49,0.8-0.87,1.4-1.16c0.6-0.28,1.29-0.43,2.05-0.43c0.78,0,1.47,0.14,2.05,0.43
			c0.59,0.28,1.05,0.67,1.38,1.16c0.33,0.49,0.5,1.05,0.5,1.69v9.13h-1.56v-9.32c0-0.37-0.11-0.7-0.32-1s-0.49-0.53-0.85-0.7
			c-0.36-0.17-0.76-0.25-1.21-0.25c-0.43,0-0.84,0.08-1.21,0.25c-0.37,0.17-0.66,0.4-0.87,0.7s-0.31,0.63-0.31,1v6.28
			c0,0.64-0.17,1.2-0.5,1.7c-0.33,0.49-0.79,0.88-1.37,1.15C20.27,25.31,19.6,25.45,18.85,25.45z"/>
		<path class="st0" d="M32.39,25.24V13.09h1.56v5.41h8.71v-5.41h1.56v12.15h-1.56v-5.63h-8.71v5.63H32.39z"/>
	</g>
	<g>
		<line class="st1" x1="9.82" y1="16.71" x2="11.02" y2="15.5"/>
		<line class="st1" x1="7.19" y1="14.08" x2="9.82" y2="16.71"/>
	</g>
</g>
</svg>
